<svg width="682" height="140" viewBox="0 0 682 140" fill="none" xmlns="http://www.w3.org/2000/svg">
<path d="M227.024 77.7838V15.5346H205.803V2.55078H263.676V15.5346H242.399V77.7838H227.024Z" fill="#DBDBDB"/>
<path d="M268.869 7.86984C268.869 3.33412 272.433 0 276.809 0C281.185 0 284.749 3.33412 284.749 7.86984C284.749 12.303 281.185 15.7438 276.809 15.7438C272.433 15.7438 268.869 12.303 268.869 7.86984ZM269.378 21.8953H284.24V77.7839H269.378V21.8953Z" fill="#DBDBDB"/>
<path d="M294.117 21.895H308.471V31.9589H308.776C311.879 24.8149 317.428 21.0625 325.828 21.0625C337.94 21.0625 344.763 28.879 344.763 41.9776V77.7959H329.9V45.1477C329.9 37.8479 326.589 33.6649 319.822 33.6649C313.056 33.6649 308.98 38.6681 308.98 45.9679V77.7713H294.117V21.895Z" fill="#DBDBDB"/>
<path d="M388.13 21.8952H404.979L384.158 45.878L405.992 77.7838H388.891L373.275 55.0519L369.408 59.3293V77.7838H354.545V2.55078H369.408V44.3114H369.612L388.13 21.8952Z" fill="#DBDBDB"/>
<path d="M457.509 60.6831C455.88 71.5795 446.006 78.7768 432.617 78.7768C415.92 78.7768 405.742 67.8804 405.742 50.1025C405.742 32.3246 415.972 20.9033 432.056 20.9033C447.888 20.9033 457.966 31.6972 457.966 48.6918V53.3341H420.353V54.2732C420.353 62.1431 425.39 67.5154 432.873 67.5154C438.218 67.5154 442.482 64.9072 443.868 60.6831H457.509ZM420.505 43.9961H443.664C443.359 36.8562 438.779 32.1606 432.212 32.1606C425.746 32.1647 421.013 37.0244 420.505 43.9961Z" fill="#DBDBDB"/>
<path d="M465.602 21.8956H479.956V31.9595H480.264C482.146 25.0247 486.831 21.219 493.241 21.219C494.671 21.1835 496.097 21.3772 497.469 21.7931V35.1911C496.268 34.6703 494.21 34.3053 492.072 34.3053C484.74 34.3053 480.46 38.8902 480.46 46.7642V77.7842H465.598L465.602 21.8956Z" fill="#DBDBDB"/>
<path d="M555.293 77.7838V43.5322H514.981V77.7838H505.82V2.55078H514.981V35.0841H555.293V2.55078H564.458V77.7838H555.293Z" fill="#DBDBDB"/>
<path d="M620.804 77.7839H612.395V68.7617H612.203C608.948 75.0691 603.551 78.3007 595.387 78.3007C583.831 78.3007 577.064 70.6359 577.064 58.3328V23.5645H585.921V56.7088C585.921 65.5219 589.925 70.2422 598.137 70.2422C606.738 70.2422 611.931 64.1973 611.931 54.97V23.5645H620.787L620.804 77.7839Z" fill="#DBDBDB"/>
<path d="M641.367 68.6017H641.163V77.7756H632.715V2.55078H641.572V32.3733H641.776C645.083 26.431 651.241 23.0435 658.724 23.0435C672.062 23.0435 681.07 34.1163 681.07 50.672C681.07 67.2278 672.062 78.3046 658.572 78.3046C650.837 78.3046 644.779 74.8639 641.367 68.6017ZM641.52 50.6638C641.52 62.3435 647.73 70.2667 656.843 70.2667C665.956 70.2667 672.01 62.606 672.01 50.6638C672.01 38.7217 666.004 31.061 656.843 31.061C647.682 31.061 641.52 39.0457 641.52 50.672V50.6638Z" fill="#DBDBDB"/>
<path d="M79.6345 0H5.14507C2.30353 0 0 2.35937 0 5.26979V29.4657C0 32.3762 2.30353 34.7355 5.14507 34.7355H79.6345C82.476 34.7355 84.7795 32.3762 84.7795 29.4657V5.26979C84.7795 2.35937 82.476 0 79.6345 0Z" fill="#05BFCE"/>
<path d="M130.505 52.0996H5.14507C2.30353 52.0996 0 54.459 0 57.3694V81.5654C0 84.4758 2.30353 86.8352 5.14507 86.8352H130.505C133.346 86.8352 135.65 84.4758 135.65 81.5654V57.3694C135.65 54.459 133.346 52.0996 130.505 52.0996Z" fill="#FFCD10"/>
<path d="M88.1001 104.202H72.9732C70.1317 104.202 67.8281 106.562 67.8281 109.472V133.668C67.8281 136.578 70.1317 138.938 72.9732 138.938H88.1001C90.9417 138.938 93.2452 136.578 93.2452 133.668V109.472C93.2452 106.562 90.9417 104.202 88.1001 104.202Z" fill="#95BF15"/>
<path d="M45.6535 104.703H5.44194C2.6004 104.703 0.296875 107.062 0.296875 109.973V133.525C0.296875 136.435 2.6004 138.795 5.44194 138.795H45.6535C48.4951 138.795 50.7986 136.435 50.7986 133.525V109.973C50.7986 107.062 48.4951 104.703 45.6535 104.703Z" fill="#EE1700"/>
<path d="M130.503 104.202H115.829C112.987 104.202 110.684 106.562 110.684 109.472V133.668C110.684 136.578 112.987 138.938 115.829 138.938H130.503C133.345 138.938 135.648 136.578 135.648 133.668V109.472C135.648 106.562 133.345 104.202 130.503 104.202Z" fill="#205B67"/>
<path d="M130.505 0H106.881C104.04 0 101.736 2.35937 101.736 5.2698V29.4658C101.736 32.3762 104.04 34.7356 106.881 34.7356H130.505C133.346 34.7356 135.65 32.3762 135.65 29.4658V5.2698C135.65 2.35937 133.346 0 130.505 0Z" fill="#0060FF"/>
<path d="M246.215 138.776H239.737L222.754 115.863L217.727 120.375V138.776H212.248V91.6611H217.727V115.154C218.951 113.758 220.208 112.372 221.497 110.997C222.786 109.601 224.064 108.193 225.332 106.775L239.093 91.6611H245.506L226.75 112.093L246.215 138.776ZM273.382 138.776L257.559 97.0752H257.301C257.387 97.9561 257.462 99.0303 257.526 100.298C257.591 101.565 257.645 102.951 257.688 104.455C257.73 105.938 257.752 107.452 257.752 108.999V138.776H252.66V91.6611H260.781L275.702 130.849H275.928L291.074 91.6611H299.131V138.776H293.717V108.612C293.717 107.216 293.738 105.819 293.781 104.423C293.824 103.005 293.878 101.673 293.942 100.427C294.007 99.1592 294.071 98.0635 294.136 97.1396H293.878L277.861 138.776H273.382ZM332.163 95.8184C329.563 95.8184 327.222 96.2695 325.138 97.1719C323.075 98.0527 321.313 99.3418 319.853 101.039C318.413 102.715 317.307 104.745 316.533 107.13C315.76 109.515 315.373 112.2 315.373 115.187C315.373 119.14 315.985 122.577 317.21 125.499C318.456 128.399 320.304 130.645 322.753 132.234C325.224 133.824 328.307 134.619 332.002 134.619C334.107 134.619 336.084 134.447 337.932 134.104C339.801 133.738 341.616 133.287 343.378 132.75V137.52C341.659 138.164 339.854 138.637 337.964 138.938C336.073 139.26 333.828 139.421 331.229 139.421C326.438 139.421 322.431 138.433 319.208 136.456C316.007 134.458 313.601 131.644 311.989 128.013C310.399 124.382 309.604 120.096 309.604 115.154C309.604 111.588 310.099 108.333 311.087 105.39C312.097 102.425 313.558 99.8682 315.47 97.7197C317.403 95.5713 319.767 93.917 322.56 92.7568C325.374 91.5752 328.597 90.9844 332.228 90.9844C334.612 90.9844 336.911 91.2207 339.124 91.6934C341.337 92.166 343.335 92.8428 345.118 93.7236L342.927 98.3643C341.423 97.6768 339.769 97.0859 337.964 96.5918C336.181 96.0762 334.247 95.8184 332.163 95.8184ZM368.063 138.776H362.553V96.4951H347.729V91.6611H382.823V96.4951H368.063V138.776ZM410.087 95.8184C407.487 95.8184 405.146 96.2695 403.062 97.1719C400.999 98.0527 399.237 99.3418 397.776 101.039C396.337 102.715 395.23 104.745 394.457 107.13C393.684 109.515 393.297 112.2 393.297 115.187C393.297 119.14 393.909 122.577 395.134 125.499C396.38 128.399 398.228 130.645 400.677 132.234C403.147 133.824 406.23 134.619 409.926 134.619C412.031 134.619 414.008 134.447 415.855 134.104C417.725 133.738 419.54 133.287 421.302 132.75V137.52C419.583 138.164 417.778 138.637 415.888 138.938C413.997 139.26 411.752 139.421 409.152 139.421C404.361 139.421 400.354 138.433 397.132 136.456C393.931 134.458 391.524 131.644 389.913 128.013C388.323 124.382 387.528 120.096 387.528 115.154C387.528 111.588 388.022 108.333 389.011 105.39C390.021 102.425 391.481 99.8682 393.394 97.7197C395.327 95.5713 397.69 93.917 400.483 92.7568C403.298 91.5752 406.521 90.9844 410.151 90.9844C412.536 90.9844 414.835 91.2207 417.048 91.6934C419.261 92.166 421.259 92.8428 423.042 93.7236L420.851 98.3643C419.347 97.6768 417.692 97.0859 415.888 96.5918C414.104 96.0762 412.171 95.8184 410.087 95.8184ZM457.75 138.776H431.518V91.6611H457.75V96.4951H436.996V111.738H456.558V116.508H436.996V133.942H457.75V138.776Z" fill="#DBDBDB"/>
</svg>
